<?xml version="1.0" encoding="UTF-8"?>
<svg width="60px" height="60px" viewBox="0 0 116 134" version="1.1" xmlns="http://www.w3.org/2000/svg" xmlns:xlink="http://www.w3.org/1999/xlink">
    <g id="Page-1" stroke="none" stroke-width="1" fill="none" fill-rule="evenodd">
        <g id="Group-6" fill="#7701CB">
            <path d="M3.0002,44.4177 L69.4562,44.4177 L69.4582,48.7837 L8.8672,48.7837 L7.3672,50.2837 L7.3672,119.4527 L8.8672,120.9527 L106.2752,120.9527 L107.7752,119.4527 L107.7752,50.2837 L106.2752,48.7837 L97.2922,48.7837 L97.2932,44.4177 L112.1432,44.4177 L112.1432,130.2307 L3.0002,130.2307 L3.0002,44.4177 Z M77.1792,2.9997 L89.5712,2.9997 C90.8362,2.9997 92.0252,3.4917 92.9192,4.3857 C93.8132,5.2807 94.3052,6.4697 94.3052,7.7357 L94.3032,13.0447 L72.4462,13.0447 L72.445197,7.7357 C72.4442,6.4697 72.9372,5.2807 73.8312,4.3857 C74.7252,3.4917 75.9142,2.9997 77.1792,2.9997 Z M69.4692,83.7657 L69.4692,84.2657 L82.0572,106.4927 L55.9342,106.4927 C55.1052,106.4927 54.4342,107.1647 54.4342,107.9927 C54.4342,108.8207 55.1052,109.4927 55.9342,109.4927 L91.5422,109.4927 C92.3702,109.4927 93.0422,108.8207 93.0422,107.9927 C93.0422,107.1647 92.3702,106.4927 91.5422,106.4927 L84.6932,106.4927 L89.4792,98.0187 L89.7412,97.6647 L89.6782,97.6647 L97.2812,84.2017 L97.2812,83.7657 L97.2912,51.7837 L104.7752,51.7837 L104.7752,117.9527 L10.3672,117.9527 L10.3672,51.7837 L69.4582,51.7837 L69.4692,83.7657 Z M77.7302,25.8167 L77.7232,80.3787 C76.0582,79.7237 74.1692,79.6797 72.4682,80.2717 L72.4502,25.8167 L77.7302,25.8167 Z M94.3002,20.9577 L94.3002,22.8167 L72.4492,22.8167 L72.4492,20.9577 L94.3002,20.9577 Z M94.3012,17.9577 L72.4482,17.9577 L72.4472,16.0447 L94.3022,16.0447 L94.3012,17.9577 Z M89.0192,25.8167 L94.2992,25.8167 L94.2822,80.2017 C92.5922,79.6277 90.6852,79.7657 89.0272,80.5157 L89.0192,25.8167 Z M86.0192,25.8167 L86.0272,80.3017 C85.2262,80.0057 84.3832,79.8347 83.5292,79.8347 C82.5632,79.8347 81.6132,80.0527 80.7232,80.4277 L80.7302,25.8167 L86.0192,25.8167 Z M80.5042,97.6647 L72.5122,83.5527 C73.2362,83.1027 74.1422,82.8347 75.0102,82.8347 C75.9922,82.8347 76.9642,83.1867 77.7482,83.8277 C78.5972,84.5217 79.9432,84.5217 80.7922,83.8277 C82.3592,82.5467 84.6982,82.5467 86.2662,83.8277 C86.6902,84.1757 87.2312,84.3667 87.7882,84.3667 C88.3452,84.3667 88.8862,84.1757 89.3102,83.8277 C90.7192,82.6767 92.7122,82.5147 94.2382,83.4897 L86.2332,97.6647 L80.5042,97.6647 Z M113.6432,133.2307 L115.1432,131.7307 L115.1432,42.9177 L113.6432,41.4177 L97.2942,41.4177 L97.3052,7.7367 C97.3062,5.6697 96.5012,3.7277 95.0412,2.2657 C93.5802,0.8047 91.6382,-0.0003 89.5712,-0.0003 L77.1792,-0.0003 C75.1122,-0.0003 73.1702,0.8047 71.7092,2.2657 C70.2492,3.7277 69.4442,5.6697 69.4452,7.7357 L69.4552,41.4177 L1.5002,41.4177 L0.0002,42.9177 L0.0002,131.7307 L1.5002,133.2307 L113.6432,133.2307 Z" id="Fill-1"></path>
            <path d="M32.8971,76.1863 L47.9151,100.3533 L19.7781,100.3533 L32.8971,76.1863 Z M50.7081,81.0643 L63.5681,100.3533 L51.4471,100.3533 L44.3771,88.9773 L50.7081,81.0643 Z M50.6131,103.3533 L66.3711,103.3533 L67.6191,101.0213 L52.0661,77.6933 L49.6471,77.5873 L42.6971,86.2733 L34.0841,72.4113 L31.4911,72.4883 L15.9391,101.1373 L17.2571,103.3533 L50.6131,103.3533 Z" id="Fill-4"></path>
        </g>
    </g>
</svg>