<?xml version="1.0" encoding="UTF-8"?>
<svg width="100px" height="100px" viewBox="0 0 444 257" version="1.1" xmlns="http://www.w3.org/2000/svg" xmlns:xlink="http://www.w3.org/1999/xlink">
    <!-- Generator: Sketch 63.1 (92452) - https://sketch.com -->
    <title>Artboard Copy</title>
    <desc>Created with Sketch.</desc>
    <g id="Artboard-Copy" stroke="none" stroke-width="1" fill="none" fill-rule="evenodd">
        <path d="M109.9785,186.4284 L139.47258,236.78178 L168.6756,186.4284 L174.59382,186.4284 L174.59382,254.3424 L167.7054,254.3424 L167.7054,200.0112 L141.0249,245.70762 L137.6292,245.70762 L110.9487,200.30226 L110.9487,254.3424 L104.06028,254.3424 L104.06028,186.4284 L109.9785,186.4284 Z M227.760781,186.4284 L227.760781,192.63768 L188.370661,192.63768 L188.370661,216.79566 L223.491901,216.79566 L223.491901,222.90792 L188.370661,222.90792 L188.370661,248.13312 L229.216081,248.13312 L229.216081,254.3424 L181.191181,254.3424 L181.191181,186.4284 L227.760781,186.4284 Z M268.771397,186.4284 L299.817797,254.3424 L292.250237,254.3424 L284.100557,236.19966 L246.262757,236.19966 L238.113077,254.3424 L230.642537,254.3424 L261.688937,186.4284 L268.771397,186.4284 Z M347.417537,186.4284 L347.417537,192.63768 L323.550617,192.63768 L323.550617,254.3424 L316.371137,254.3424 L316.371137,192.63768 L292.504217,192.63768 L292.504217,186.4284 L347.417537,186.4284 Z M265.181657,193.89894 L248.882297,230.37846 L281.481017,230.37846 L265.181657,193.89894 Z M109.9785,99.7572 L139.47258,150.11058 L168.6756,99.7572 L174.59382,99.7572 L174.59382,167.6712 L167.7054,167.6712 L167.7054,113.34 L141.0249,159.03642 L137.6292,159.03642 L110.9487,113.63106 L110.9487,167.6712 L104.06028,167.6712 L104.06028,99.7572 L109.9785,99.7572 Z M227.760781,99.7572 L227.760781,105.96648 L188.370661,105.96648 L188.370661,130.12446 L223.491901,130.12446 L223.491901,136.23672 L188.370661,136.23672 L188.370661,161.46192 L229.216081,161.46192 L229.216081,167.6712 L181.191181,167.6712 L181.191181,99.7572 L227.760781,99.7572 Z M284.905561,99.7572 L284.905561,105.96648 L245.515441,105.96648 L245.515441,130.12446 L280.636681,130.12446 L280.636681,136.23672 L245.515441,136.23672 L245.515441,161.46192 L286.360861,161.46192 L286.360861,167.6712 L238.335961,167.6712 L238.335961,99.7572 L284.905561,99.7572 Z M347.483461,99.7572 L347.483461,105.96648 L323.616541,105.96648 L323.616541,167.6712 L316.437061,167.6712 L316.437061,105.96648 L292.570141,105.96648 L292.570141,99.7572 L347.483461,99.7572 Z M295.775809,-1.00024148 C295.924279,1.3240365 296,3.67520132 296,6.04938498 C296,52.4140294 267.122366,90 231.5,90 C195.877634,90 167,52.4140294 167,6.04938498 C167,3.67520132 167.075721,1.3240365 167.224191,-1.00024148 C169.974768,42.0657479 197.701509,75.9014234 231.5,75.9014234 C264.985024,75.9014234 292.510403,42.6904598 295.692902,0.195412356 L295.775809,-1.00024148 Z" id="Combined-Shape" fill="#FFFFFF"></path>
    </g>
</svg>