<?xml version="1.0" encoding="UTF-8"?>
<svg width="100px" height="100px" viewBox="0 0 444 257" version="1.1" xmlns="http://www.w3.org/2000/svg" xmlns:xlink="http://www.w3.org/1999/xlink">
    <!-- Generator: Sketch 63.1 (92452) - https://sketch.com -->
    <title>Artboard Copy 3</title>
    <desc>Created with Sketch.</desc>
    <g id="Artboard-Copy-3" stroke="none" stroke-width="1" fill="none" fill-rule="evenodd">
        <g id="Group" transform="translate(83.000000, 0.000000)" fill="#FFFFFF">
            <g id="Group-12">
                <path d="M26.3353428,108.317065 L16.3551587,107.683917 C16.7208798,101.94138 17.5308947,96.1589139 18.7609174,90.4933808 C25.2753232,60.5272308 43.0899374,34.8890177 68.9218424,18.2974048 C94.7537473,1.70579179 125.514315,-3.85279071 155.534868,2.65123565 C185.552564,9.15098399 211.238752,26.9333143 227.860488,52.7212584 L219.451761,58.1215539 C204.274338,34.5767218 180.822477,18.340185 153.4134,12.4065622 C126.001466,6.46580933 97.9180913,11.5424008 74.3333707,26.6923188 C50.7457929,41.8408109 34.4812073,65.2501721 28.5353833,92.6095779 C27.4096483,97.7874161 26.6682061,103.072205 26.3353428,108.317065" id="Fill-1" stroke="#FFFFFF" stroke-width="3"></path>
                <polygon id="Fill-3" points="42.2243501 90.5136301 21.7225434 100.900679 -0.000714298886 93.3813339 24.5168807 141.904137"></polygon>
                <path d="M62.114574,256.747332 L57.731636,203.189292 C48.6414684,195.658539 40.8127526,186.8401 34.4369207,176.947877 L42.8470758,171.547581 C49.0257612,181.133213 56.701617,189.617965 65.6617822,196.765122 L67.3489562,198.109848 L70.7390187,239.536831 L106.889685,216.830492 L108.884008,217.263999 C136.291656,223.19477 164.37646,218.126734 187.964038,202.976816 C211.551615,187.828324 227.816201,164.418963 233.763454,137.058131 C235.04062,131.182975 235.817777,125.188033 236.076353,119.238725 L246.067966,119.670805 C245.783675,126.183388 244.933659,132.74588 243.536491,139.175754 C237.022085,169.140478 219.208899,194.780117 193.375566,211.37173 C168.120814,227.592581 138.154548,233.263818 108.781149,227.43572 L62.114574,256.747332 Z" id="Fill-6" stroke="#FFFFFF" stroke-width="3"></path>
                <polygon id="Fill-9" points="262.751559 133.619026 240.874013 126.560282 220.596496 137.377985 237.211089 85.6252718"></polygon>
            </g>
            <g id="Group-8" transform="translate(70.000000, 52.000000)">
                <path d="M66.5684211,20.4866516 L66.5684211,8.38101554 L43.2696333,8.60891632 L43.8604636,0 L25.1964667,1.08642139 L25.8500683,8.77913413 L3.11090257,9.00172666 L3.11090257,20.0209414 L49.9262271,20.0209414 C49.9262271,20.0209414 44.2420563,35.914897 30.9739079,50.5992799 C22.0688961,42.3877744 16.4868616,34.7651305 16.4868616,34.7651305 L9.48768543,41.4390136 C13.2763051,48.3011625 17.5802169,54.1735001 22.0288217,59.1759928 C15.8506373,64.2648331 8.54221504,68.6943889 0,71.548103 L5.91043118,84.8951613 C5.91043118,84.8951613 18.182041,80.0228976 31.1168278,68.1462239 C45.48968,80.6039738 58.7915193,84.8951613 58.7915193,84.8951613 L64.7019504,69.8406166 C55.8809883,68.1218059 47.5522666,63.6051948 40.3768343,58.3641848 C48.226792,48.7835052 55.2525661,36.2790428 58.6361869,20.3316508 L66.5684211,20.4866516 Z" id="Fill-4"></path>
                <path d="M87.1720666,84.1133868 L92.8338714,65.7719159 L97.2756684,85.3575002 L87.1720666,84.1133868 Z M101.356152,46.3593297 L88.8673902,46.188172 L57.4315789,120.330093 L78.0016283,120.612595 L84.4304966,94.9598105 L99.1962384,95.1502924 L106.211667,121 L124,120.508612 L101.356152,46.3593297 Z" id="Fill-6"></path>
            </g>
        </g>
    </g>
</svg>