<?xml version="1.0" encoding="UTF-8"?>
<svg width="100px" height="80px" viewBox="0 0 464 257" version="1.1" xmlns="http://www.w3.org/2000/svg" xmlns:xlink="http://www.w3.org/1999/xlink">
    <!-- Generator: Sketch 63.1 (92452) - https://sketch.com -->
    <title>Artboard</title>
    <desc>Created with Sketch.</desc>
    <g id="Artboard" stroke="none" stroke-width="1" fill="none" fill-rule="evenodd">
        <g id="HBHM" transform="translate(10.000000, 0.000000)" fill="#FFFFFF" fill-rule="nonzero">
            <path d="M429.717523,213.121951 C431.895563,213.121951 433.774818,213.301977 435.355343,213.662034 C436.935868,214.022091 438.241709,214.513512 439.272905,215.136312 C440.3041,215.759114 441.070259,216.493813 441.571401,217.340433 C442.072542,218.187053 442.323111,219.096912 442.323111,220.070038 C442.323111,220.77069 442.173733,221.422674 441.874975,222.026013 C441.576218,222.629352 441.123269,223.154831 440.516116,223.60247 C439.908964,224.050108 439.147625,224.400428 438.232077,224.653442 C437.316528,224.906454 436.251618,225.032959 435.037312,225.032959 C435.037312,224.19607 434.926484,223.295941 434.704825,222.332546 C434.483166,221.369152 434.121772,220.473888 433.620629,219.646731 C433.119487,218.819574 432.468976,218.133529 431.669076,217.588579 C430.869176,217.043628 429.900637,216.771157 428.76343,216.771157 C427.973167,216.771157 427.221466,216.88793 426.508303,217.12148 C425.795139,217.35503 425.173539,217.705351 424.643485,218.172452 C424.113431,218.639552 423.694213,219.218554 423.385817,219.909474 C423.077423,220.600393 422.923227,221.39348 422.923227,222.288755 C422.923227,223.125644 423.058148,223.913865 423.327993,224.653442 C423.597839,225.393017 424.094156,226.117985 424.816957,226.828367 C425.539757,227.53875 426.532389,228.249121 427.794882,228.959504 C429.057374,229.669886 430.69088,230.433778 432.695448,231.251205 C434.719291,232.088094 436.444351,232.944432 437.870677,233.820246 C439.297005,234.696059 440.467925,235.635112 441.383473,236.637432 C442.299022,237.639753 442.963988,238.739369 443.378394,239.936315 C443.7928,241.13326 444,242.461557 444,243.921247 C444,245.848037 443.62415,247.614235 442.872436,249.219894 C442.120723,250.825552 441.041357,252.202506 439.634304,253.350794 C438.227251,254.499083 436.535922,255.394346 434.560266,256.036609 C432.584609,256.678873 430.363235,257 427.896074,257 C425.236166,257 423.019609,256.746991 421.246337,256.240965 C419.473065,255.73494 418.051578,255.082955 416.981832,254.284991 C415.912087,253.487027 415.150748,252.591765 414.697793,251.599176 C414.244837,250.606587 414.018363,249.623743 414.018363,248.650617 C414.018363,247.619104 414.206288,246.753034 414.582145,246.052383 C414.958001,245.351732 415.459136,244.777597 416.085564,244.329958 C416.711992,243.88232 417.425144,243.561193 418.225044,243.366568 C419.024944,243.171942 419.858562,243.074631 420.725923,243.074631 C420.725923,244.787333 420.928304,246.290791 421.333073,247.585049 C421.737841,248.879308 422.296799,249.959462 423.009963,250.825544 C423.723126,251.691627 424.576019,252.343611 425.568666,252.781519 C426.561313,253.219425 427.645498,253.438375 428.821255,253.438375 C429.977735,253.438375 431.008917,253.272946 431.914827,252.942084 C432.820738,252.61122 433.591714,252.153858 434.227779,251.569983 C434.863844,250.986107 435.345704,250.300062 435.673374,249.511831 C436.001043,248.723598 436.164877,247.872125 436.164877,246.957386 C436.164877,245.945334 435.962494,245.045206 435.557726,244.256973 C435.152957,243.468742 434.540995,242.738908 433.721821,242.067451 C432.902646,241.395993 431.871466,240.75374 430.628248,240.14067 C429.38503,239.527601 427.934632,238.870749 426.277007,238.170098 C424.214615,237.313748 422.4751,236.433081 421.05841,235.528074 C419.64172,234.623066 418.499711,233.645089 417.63235,232.594113 C416.764989,231.543136 416.143389,230.404595 415.767533,229.178456 C415.391676,227.952317 415.20375,226.609423 415.20375,225.149733 C415.20375,223.320255 415.569965,221.665965 416.302402,220.186814 C417.034841,218.707661 418.046748,217.442616 419.338152,216.39164 C420.629556,215.340663 422.161872,214.53298 423.935144,213.968567 C425.708416,213.404154 427.635855,213.121951 429.717523,213.121951 Z M231.699941,213.735018 L244.074233,248.942554 C244.363354,249.779443 244.666925,250.475218 244.984957,251.029899 C245.302991,251.584582 245.64993,252.022482 246.025787,252.343614 C246.401642,252.664745 246.801587,252.893426 247.22563,253.029665 C247.649673,253.165901 248.092984,253.234019 248.555577,253.234019 L249.625318,253.234019 L249.625318,256.416127 L230.080875,256.416127 L230.080875,253.234019 L232.393826,253.234019 C232.682947,253.234019 232.9817,253.190229 233.290096,253.102649 C233.59849,253.015067 233.873151,252.878831 234.114084,252.693937 C234.355018,252.509044 234.552581,252.270631 234.706778,251.978693 C234.860976,251.686755 234.938074,251.336435 234.938074,250.927722 C234.938074,250.441158 234.880251,249.974065 234.764602,249.526427 C234.648955,249.078788 234.533307,248.689544 234.41766,248.358681 L232.336003,242.373984 L217.937879,242.373984 L216.232077,247.512065 C216.077879,247.998629 215.918865,248.567899 215.75503,249.219894 C215.591195,249.871888 215.509279,250.441158 215.509279,250.927722 C215.509279,251.316972 215.586376,251.657562 215.740574,251.9495 C215.894772,252.241438 216.097153,252.479849 216.347724,252.664744 C216.598295,252.849638 216.882593,252.990739 217.200625,253.088052 C217.518658,253.185364 217.851141,253.234019 218.198086,253.234019 L220.684509,253.234019 L220.684509,256.416127 L205.274468,256.416127 L205.274468,253.234019 L205.997265,253.234019 C206.517682,253.234019 206.994723,253.175633 207.428404,253.058858 C207.862084,252.942083 208.266847,252.723133 208.642704,252.402001 C209.01856,252.080869 209.375136,251.638103 209.712443,251.07369 C210.049752,250.509277 210.391872,249.779443 210.738816,248.884166 L223.575698,213.735018 L231.699941,213.735018 Z M167.370971,213.735018 L177.201015,242.607533 L186.626295,213.735018 L203.366282,213.735018 L203.366282,216.887931 L200.879859,216.887931 C200.455816,216.887931 200.060691,216.931722 199.694471,217.019303 C199.328252,217.106885 199.010225,217.28691 198.740379,217.559385 C198.470533,217.831861 198.258515,218.221105 198.104317,218.727132 C197.950119,219.233157 197.873022,219.914335 197.873022,220.770686 L197.873022,249.351264 C197.873022,250.207617 197.950119,250.888794 198.104317,251.39482 C198.258515,251.900846 198.470533,252.29009 198.740379,252.562566 C199.010225,252.835041 199.328252,253.015067 199.694471,253.102649 C200.060691,253.190229 200.455816,253.234019 200.879859,253.234019 L203.366282,253.234019 L203.366282,256.416127 L184.42899,256.416127 L184.42899,253.234019 L185.007228,253.234019 C185.624018,253.234019 186.168521,253.195096 186.64075,253.117245 C187.11298,253.039395 187.503287,252.883697 187.811681,252.650147 C188.120077,252.416597 188.35137,252.080873 188.505568,251.642967 C188.659765,251.205059 188.736862,250.626057 188.736862,249.905945 L188.736862,219.632134 L176.796249,256.416127 L172.777496,256.416127 L160.258645,219.632134 L160.258645,249.351264 C160.258645,250.207617 160.359834,250.888794 160.562219,251.39482 C160.764604,251.900846 161.053719,252.29009 161.429576,252.562566 C161.805433,252.835041 162.2632,253.015067 162.802891,253.102649 C163.342583,253.190229 163.959364,253.234019 164.653253,253.234019 L165.000195,253.234019 L165.000195,256.416127 L150.312951,256.416127 L150.312951,253.234019 L152.799374,253.234019 C153.223419,253.234019 153.618544,253.195096 153.984762,253.117245 C154.350982,253.039395 154.673828,252.878831 154.953312,252.635551 C155.232794,252.392269 155.449631,252.032217 155.603829,251.555385 C155.758026,251.078554 155.835124,250.450896 155.835124,249.672396 L155.835124,220.537137 C155.835124,219.739173 155.758026,219.101785 155.603829,218.624953 C155.449631,218.148121 155.232794,217.783204 154.953312,217.530192 C154.673828,217.277179 154.350982,217.106885 153.984762,217.019303 C153.618544,216.931722 153.223419,216.887931 152.799374,216.887931 L150.312951,216.887931 L150.312951,213.735018 L167.370971,213.735018 Z M411.38738,213.735018 L411.676499,225.324894 L407.715569,225.324894 L407.281891,221.617303 C407.204792,220.955576 407.07469,220.361978 406.89158,219.836489 C406.708471,219.311001 406.428993,218.868235 406.053136,218.508179 C405.677279,218.148122 405.1906,217.870785 404.593085,217.67616 C403.995569,217.481534 403.253505,217.384224 402.366869,217.384224 L397.625317,217.384224 L397.625317,249.351264 C397.625317,250.207617 397.702416,250.888794 397.856613,251.39482 C398.01081,251.900846 398.227647,252.29009 398.50713,252.562566 C398.786614,252.835041 399.109459,253.015067 399.475679,253.102649 C399.841898,253.190229 400.237024,253.234019 400.661067,253.234019 L403.14749,253.234019 L403.14749,256.416127 L382.706779,256.416127 L382.706779,253.234019 L385.193202,253.234019 C385.63652,253.234019 386.041283,253.190229 386.407501,253.102649 C386.77372,253.015067 387.091748,252.835041 387.361594,252.562566 C387.63144,252.29009 387.843458,251.900846 387.997656,251.39482 C388.151853,250.888794 388.228951,250.207617 388.228951,249.351264 L388.228951,217.384224 L383.4874,217.384224 C382.600764,217.384224 381.858699,217.481534 381.261184,217.67616 C380.663669,217.870785 380.17699,218.148122 379.801133,218.508179 C379.425276,218.868235 379.145798,219.311001 378.962688,219.836489 C378.779578,220.361978 378.649476,220.955576 378.572378,221.617303 L378.167611,225.324894 L374.177769,225.324894 L374.4958,213.735018 L411.38738,213.735018 Z M369.46513,213.735018 L369.696425,224.741022 L365.562023,224.741022 L365.272905,221.909238 C365.118708,220.44955 364.752494,219.33047 364.174253,218.551969 C363.596012,217.773469 362.699752,217.384224 361.485447,217.384224 L351.510842,217.384224 L351.510842,232.33137 L365.562023,232.33137 L365.562023,235.922188 L351.510842,235.922188 L351.510842,252.766921 L363.36472,252.766921 C363.962235,252.766921 364.473007,252.655014 364.89705,252.431195 C365.321094,252.207376 365.687307,251.891114 365.995703,251.482401 C366.304097,251.073687 366.549847,250.591998 366.732955,250.037315 C366.916065,249.482634 367.055804,248.874439 367.152178,248.212712 L367.614768,245.410123 L371.720257,245.410123 L371.286579,256.416127 L336.592303,256.416127 L336.592303,253.234019 L339.078726,253.234019 C339.502769,253.234019 339.897894,253.195096 340.264114,253.117245 C340.630333,253.039395 340.95318,252.878831 341.232662,252.635551 C341.512145,252.392269 341.728982,252.032217 341.883181,251.555385 C342.037378,251.078554 342.114475,250.450896 342.114475,249.672396 L342.114475,220.770686 C342.114475,219.914335 342.037378,219.233157 341.883181,218.727132 C341.728982,218.221105 341.516964,217.831861 341.247118,217.559385 C340.977273,217.28691 340.659246,217.106885 340.293026,217.019303 C339.926807,216.931722 339.522044,216.887931 339.078726,216.887931 L336.592303,216.887931 L336.592303,213.735018 L369.46513,213.735018 Z M313.578433,213.735018 L313.578433,216.887931 L311.09201,216.887931 C310.667967,216.887931 310.263204,216.931722 309.877711,217.019303 C309.492217,217.106885 309.164552,217.28691 308.894706,217.559385 C308.624861,217.831861 308.408024,218.221105 308.244189,218.727132 C308.080353,219.233157 307.998437,219.914335 307.998437,220.770686 L307.998437,234.725249 L317.19242,224.595054 C317.828485,223.913865 318.363351,223.29594 318.797031,222.741257 C319.230712,222.186575 319.577651,221.670826 319.837859,221.193994 C320.098068,220.717162 320.285992,220.264665 320.401641,219.836489 C320.517289,219.408315 320.575113,218.989876 320.575113,218.581163 C320.575113,217.919437 320.324545,217.462074 319.823403,217.209062 C319.322261,216.956049 318.464549,216.829545 317.250244,216.829545 L317.250244,213.735018 L333.296346,213.735018 L333.296346,216.829545 C332.48681,216.829545 331.720652,216.956049 330.997852,217.209062 C330.27505,217.462074 329.566716,217.822126 328.872827,218.289227 C328.178938,218.756327 327.494697,219.311001 326.820082,219.953265 C326.145468,220.595528 325.461227,221.305899 324.767338,222.084401 L316.961126,230.754913 L327.976558,248.417068 C328.554799,249.35127 329.108938,250.124893 329.638992,250.737964 C330.169046,251.351033 330.703911,251.842454 331.243603,252.212242 C331.783294,252.582031 332.332614,252.84477 332.891581,253.00047 C333.450546,253.156171 334.05769,253.234019 334.71303,253.234019 L334.944325,253.234019 L334.944325,256.416127 L331.764017,256.416127 C330.26059,256.416127 328.940293,256.367472 327.803086,256.270158 C326.665879,256.172846 325.668429,256.026879 324.810705,255.832255 C323.952982,255.637629 323.215736,255.389486 322.598946,255.087816 C321.982155,254.786147 321.442471,254.430962 320.979878,254.022248 C320.517287,253.613535 320.098068,253.151307 319.722212,252.635551 C319.346355,252.119792 318.975322,251.550522 318.609103,250.927722 L310.62942,237.177515 L307.998437,239.250264 L307.998437,249.351264 C307.998437,250.207617 308.080353,250.888794 308.244189,251.39482 C308.408024,251.900846 308.624861,252.29009 308.894706,252.562566 C309.164552,252.835041 309.492217,253.015067 309.877711,253.102649 C310.263204,253.190229 310.667967,253.234019 311.09201,253.234019 L313.578433,253.234019 L313.578433,256.416127 L293.137722,256.416127 L293.137722,253.234019 L295.624145,253.234019 C296.048188,253.234019 296.443314,253.195096 296.809533,253.117245 C297.175753,253.039395 297.498598,252.878831 297.778081,252.635551 C298.057565,252.392269 298.274402,252.032217 298.428599,251.555385 C298.582797,251.078554 298.659895,250.450896 298.659895,249.672396 L298.659895,220.537137 C298.659895,219.739173 298.582797,219.101785 298.428599,218.624953 C298.274402,218.148121 298.057565,217.783204 297.778081,217.530192 C297.498598,217.277179 297.175753,217.106885 296.809533,217.019303 C296.443314,216.931722 296.048188,216.887931 295.624145,216.887931 L293.137722,216.887931 L293.137722,213.735018 L313.578433,213.735018 Z M13.1549131,213.735018 L34.0582144,243.570923 L34.0582144,220.537137 C34.0582144,219.739173 33.9762982,219.101785 33.8124634,218.624953 C33.6486284,218.148121 33.4269729,217.783204 33.1474897,217.530192 C32.8680067,217.277179 32.5451603,217.106885 32.1789412,217.019303 C31.8127221,216.931722 31.4272338,216.887931 31.0224653,216.887931 L28.5360422,216.887931 L28.5360422,213.735018 L44.003907,213.735018 L44.003907,216.887931 L41.5174839,216.887931 C41.1127154,216.887931 40.7272271,216.931722 40.361008,217.019303 C39.9947889,217.106885 39.6719425,217.28691 39.3924595,217.559385 C39.1129763,217.831861 38.8961393,218.221105 38.7419418,218.727132 C38.5877442,219.233157 38.5106466,219.914335 38.5106466,220.770686 L38.5106466,256.416127 L33.0462981,256.416127 L9.94569252,223.485695 L9.94569252,249.351264 C9.94569252,250.207617 10.0276087,250.888794 10.1914436,251.39482 C10.3552785,251.900846 10.5721156,252.29009 10.8419613,252.562566 C11.111807,252.835041 11.4346533,253.015067 11.8105099,253.102649 C12.1863664,253.190229 12.5766731,253.234019 12.9814417,253.234019 L15.4678648,253.234019 L15.4678648,256.416127 L1.68142611e-10,256.416127 L1.68142611e-10,253.234019 L2.48642313,253.234019 C2.91046641,253.234019 3.30559171,253.190229 3.67181091,253.102649 C4.03803009,253.015067 4.36087637,252.835041 4.64035944,252.562566 C4.91984251,252.29009 5.13667957,251.900846 5.29087712,251.39482 C5.44507468,250.888794 5.52217229,250.207617 5.52217229,249.351264 L5.52217229,220.537137 C5.52217229,219.739173 5.44025607,219.101785 5.27642117,218.624953 C5.11258627,218.148121 4.89093061,217.783204 4.61144755,217.530192 C4.33196449,217.277179 4.00911819,217.106885 3.64289901,217.019303 C3.27667981,216.931722 2.8911917,216.887931 2.48642313,216.887931 L1.68142611e-10,216.887931 L1.68142611e-10,213.735018 L13.1549131,213.735018 Z M63.9531159,213.735018 C69.5813265,213.735018 73.8120585,214.610819 76.6454386,216.362445 C79.4788186,218.114073 80.8954874,220.858249 80.8954874,224.595054 C80.8954874,225.918506 80.7171992,227.071643 80.3606173,228.0545 C80.0040355,229.037358 79.4980823,229.883966 78.8427428,230.594348 C78.1874031,231.30473 77.4019711,231.912925 76.4864231,232.418951 C75.5708752,232.924976 74.5541502,233.353146 73.436218,233.703472 L73.436218,233.995407 C74.8047213,234.345733 76.052739,234.827423 77.1803086,235.440492 C78.3078782,236.053563 79.2812358,236.802858 80.1004103,237.688404 C80.9195847,238.573949 81.5556401,239.600582 82.0085954,240.768333 C82.4615507,241.936084 82.688025,243.249785 82.688025,244.709475 C82.688025,248.640906 81.2713562,251.574837 78.4379761,253.511359 C75.6045961,255.447881 71.3738642,256.416127 65.7456534,256.416127 L46.6638016,256.416127 L46.6638016,253.234019 L49.0924008,253.234019 C49.5357188,253.234019 49.9453,253.190229 50.3211565,253.102649 C50.697013,253.015067 51.0198593,252.835041 51.289705,252.562566 C51.5595508,252.29009 51.7763879,251.900846 51.9402227,251.39482 C52.1040576,250.888794 52.1859738,250.207617 52.1859738,249.351264 L52.1859738,220.712299 C52.1859738,219.914335 52.1040576,219.267217 51.9402227,218.770921 C51.7763879,218.274628 51.5547322,217.890248 51.275249,217.617773 C50.995766,217.345298 50.6681012,217.155541 50.2922445,217.048496 C49.916388,216.941452 49.5164441,216.887931 49.0924008,216.887931 L46.6638016,216.887931 L46.6638016,213.735018 L63.9531159,213.735018 Z M106.887283,213.735018 L106.887283,216.917125 L104.343036,216.917125 C103.918992,216.917125 103.523867,216.960915 103.157648,217.048496 C102.791429,217.136078 102.473401,217.316103 102.203555,217.588579 C101.93371,217.861054 101.716873,218.250299 101.553038,218.756325 C101.389203,219.26235 101.307287,219.943529 101.307287,220.79988 L101.307287,232.33137 L116.775151,232.33137 L116.775151,220.79988 C116.775151,219.943529 116.698054,219.26235 116.543856,218.756325 C116.389659,218.250299 116.172822,217.861054 115.893339,217.588579 C115.613855,217.316103 115.291009,217.136078 114.92479,217.048496 C114.558571,216.960915 114.163445,216.917125 113.739402,216.917125 L111.195155,216.917125 L111.195155,213.735018 L131.635866,213.735018 L131.635866,216.917125 L129.149443,216.917125 C128.744675,216.917125 128.359187,216.960915 127.992968,217.048496 C127.626748,217.136078 127.303902,217.316103 127.024419,217.588579 C126.744936,217.861054 126.528099,218.250299 126.373901,218.756325 C126.219704,219.26235 126.142606,219.943529 126.142606,220.79988 L126.142606,249.672396 C126.142606,250.450896 126.224522,251.078554 126.388357,251.555385 C126.552192,252.032217 126.773848,252.392269 127.053331,252.635551 C127.332814,252.878831 127.650841,253.039395 128.007424,253.117245 C128.364006,253.195096 128.744675,253.234019 129.149443,253.234019 L131.635866,253.234019 L131.635866,256.416127 L111.195155,256.416127 L111.195155,253.234019 L113.739402,253.234019 C114.163445,253.234019 114.558571,253.190229 114.92479,253.102649 C115.291009,253.015067 115.613855,252.835041 115.893339,252.562566 C116.172822,252.29009 116.389659,251.900846 116.543856,251.39482 C116.698054,250.888794 116.775151,250.207617 116.775151,249.351264 L116.775151,235.980576 L101.307287,235.980576 L101.307287,249.351264 C101.307287,250.207617 101.389203,250.888794 101.553038,251.39482 C101.716873,251.900846 101.93371,252.29009 102.203555,252.562566 C102.473401,252.835041 102.791429,253.015067 103.157648,253.102649 C103.523867,253.190229 103.918992,253.234019 104.343036,253.234019 L106.887283,253.234019 L106.887283,256.416127 L86.4465716,256.416127 L86.4465716,253.234019 L88.9329948,253.234019 C89.357038,253.234019 89.7521632,253.190229 90.1183825,253.102649 C90.4846016,253.015067 90.807448,252.835041 91.086931,252.562566 C91.366414,252.29009 91.5832511,251.900846 91.7374487,251.39482 C91.8916462,250.888794 91.9687439,250.207617 91.9687439,249.351264 L91.9687439,220.566331 C91.9687439,219.768367 91.8868277,219.130978 91.7229927,218.654148 C91.5591579,218.177315 91.3375022,217.812398 91.0580192,217.559385 C90.778536,217.306373 90.4556898,217.136078 90.0894706,217.048496 C89.7232514,216.960915 89.3377633,216.917125 88.9329948,216.917125 L86.4465716,216.917125 L86.4465716,213.735018 L106.887283,213.735018 Z M270.355147,213.735018 C275.944809,213.735018 280.045438,214.678937 282.65716,216.566801 C285.26888,218.454667 286.574722,221.198841 286.574722,224.799409 C286.574722,226.375874 286.343428,227.777155 285.880837,229.003295 C285.418244,230.229434 284.806281,231.299857 284.044931,232.214595 C283.28358,233.129334 282.42105,233.902957 281.457316,234.535491 C280.493581,235.168023 279.510587,235.688637 278.508302,236.09735 L285.562806,248.358681 C286.063947,249.215033 286.550627,249.949732 287.022856,250.562801 C287.495086,251.175871 287.967309,251.681889 288.439539,252.08087 C288.911769,252.479852 289.398448,252.771786 289.899589,252.95668 C290.400732,253.141575 290.930777,253.234019 291.489744,253.234019 L291.72104,253.234019 L291.72104,256.416127 L289.783942,256.416127 C288.01067,256.416127 286.463899,256.348009 285.143583,256.211772 C283.823266,256.075534 282.666802,255.807928 281.674155,255.408946 C280.681508,255.009965 279.823797,254.460156 279.100996,253.759505 C278.378195,253.058854 277.70841,252.153861 277.09162,251.044497 L270.066029,237.878162 L266.134011,237.878162 L266.134011,249.672396 C266.134011,250.450896 266.215927,251.078554 266.379762,251.555385 C266.543596,252.032217 266.765252,252.392269 267.044735,252.635551 C267.324219,252.878831 267.647064,253.039395 268.013284,253.117245 C268.379503,253.195096 268.764991,253.234019 269.16976,253.234019 L271.714007,253.234019 L271.714007,256.416127 L251.273296,256.416127 L251.273296,253.234019 L253.759719,253.234019 C254.164487,253.234019 254.549975,253.195096 254.916195,253.117245 C255.282414,253.039395 255.60526,252.878831 255.884743,252.635551 C256.164226,252.392269 256.385882,252.032217 256.549717,251.555385 C256.713551,251.078554 256.795467,250.450896 256.795467,249.672396 L256.795467,220.537137 C256.795467,219.739173 256.713551,219.101785 256.549717,218.624953 C256.385882,218.148121 256.164226,217.783204 255.884743,217.530192 C255.60526,217.277179 255.282414,217.106885 254.916195,217.019303 C254.549975,216.931722 254.164487,216.887931 253.759719,216.887931 L251.273296,216.887931 L251.273296,213.735018 L270.355147,213.735018 Z M65.5721821,235.922188 L61.5245165,235.922188 L61.5245165,252.766921 L65.4565344,252.766921 C66.7672137,252.766921 67.8851292,252.620955 68.8103145,252.329017 C69.7354998,252.037079 70.4872017,251.56512 71.0654425,250.913125 C71.6436833,250.26113 72.0629017,249.409657 72.32311,248.358681 C72.5833184,247.307704 72.7134206,246.023198 72.7134206,244.50512 C72.7134206,243.045431 72.5977741,241.775519 72.3664778,240.69535 C72.1351815,239.615179 71.7400562,238.724781 71.18109,238.02413 C70.622124,237.323479 69.8896966,236.798 68.9837858,236.447674 C68.0778752,236.097349 66.9406854,235.922188 65.5721821,235.922188 Z M225.541707,219.953265 C225.368235,220.556602 225.165854,221.218318 224.934557,221.938432 C224.703261,222.658545 224.457513,223.398111 224.197304,224.157149 L223.416682,226.434254 C223.156474,227.193292 222.910726,227.923126 222.67943,228.623777 L219.18109,238.724779 L231.150615,238.724779 L228.02813,228.915714 C227.816108,228.234524 227.599271,227.519287 227.377613,226.76998 C227.155953,226.020673 226.934299,225.256781 226.712639,224.478279 C226.490981,223.699779 226.278962,222.926154 226.076578,222.157385 C225.874193,221.388615 225.695905,220.653916 225.541707,219.953265 Z M269.343231,217.267448 L266.134011,217.267448 L266.134011,234.404119 L269.458878,234.404119 C270.827382,234.404119 271.96939,234.219227 272.884939,233.849439 C273.800487,233.479652 274.532914,232.929843 275.082242,232.199999 C275.631571,231.470153 276.026697,230.555429 276.26763,229.455796 C276.508565,228.356163 276.629029,227.076521 276.629029,225.616831 C276.629029,224.098754 276.494108,222.814246 276.224263,221.76327 C275.954417,220.712294 275.53038,219.85109 274.952139,219.179633 C274.373898,218.508175 273.622196,218.021619 272.697011,217.71995 C271.771825,217.418281 270.65391,217.267448 269.343231,217.267448 Z M63.6639969,217.384224 L61.5245165,217.384224 L61.5245165,232.272983 L63.7796444,232.272983 C65.1674225,232.272983 66.3190681,232.127016 67.2346161,231.835078 C68.1501641,231.54314 68.8825915,231.090643 69.4319203,230.477573 C69.9812491,229.864504 70.3715558,229.071417 70.6028521,228.098291 C70.8341484,227.125165 70.9497949,225.95743 70.9497949,224.595054 C70.9497949,223.232677 70.8196927,222.094136 70.5594843,221.179398 C70.299276,220.264659 69.8800575,219.525094 69.3018168,218.960681 C68.723576,218.396267 67.9718741,217.992426 67.0466888,217.749144 C66.1215035,217.505863 64.9939508,217.384224 63.6639969,217.384224 Z M198.611107,183.227017 L207.861746,196.372424 L207.861746,186.223964 C207.861746,185.872388 207.825496,185.591562 207.752991,185.381475 C207.680487,185.171387 207.582395,185.010609 207.458711,184.899133 C207.335027,184.787658 207.192153,184.712628 207.030084,184.674041 C206.868017,184.635453 206.697421,184.61616 206.518293,184.61616 L205.417941,184.61616 L205.417941,183.227017 L212.263158,183.227017 L212.263158,184.61616 L211.162806,184.61616 C210.983677,184.61616 210.813081,184.635453 210.651013,184.674041 C210.488946,184.712628 210.346071,184.791945 210.222387,184.911996 C210.098704,185.032046 210.002744,185.203543 209.934505,185.426493 C209.866266,185.649443 209.832145,185.949564 209.832145,186.326863 L209.832145,202.031895 L207.41393,202.031895 L197.190885,187.52307 L197.190885,198.919187 C197.190885,199.296486 197.227136,199.596607 197.29964,199.819556 C197.372144,200.042507 197.468104,200.214004 197.587524,200.334053 C197.706942,200.454103 197.849816,200.533421 198.016149,200.572009 C198.182482,200.610596 198.35521,200.62989 198.534339,200.62989 L199.634691,200.62989 L199.634691,202.031895 L192.789474,202.031895 L192.789474,200.62989 L193.889826,200.62989 C194.077485,200.62989 194.252345,200.610596 194.414413,200.572009 C194.576482,200.533421 194.719355,200.454103 194.843039,200.334053 C194.966722,200.214004 195.062682,200.042507 195.130922,199.819556 C195.199161,199.596607 195.233281,199.296486 195.233281,198.919187 L195.233281,186.223964 C195.233281,185.872388 195.197029,185.591562 195.124524,185.381475 C195.05202,185.171387 194.953928,185.010609 194.830244,184.899133 C194.70656,184.787658 194.563687,184.712628 194.401619,184.674041 C194.23955,184.635453 194.068954,184.61616 193.889826,184.61616 L192.789474,184.61616 L192.789474,183.227017 L198.611107,183.227017 Z M220.94739,183.227017 C223.457413,183.227017 225.3442,183.612887 226.607808,184.384636 C227.871416,185.156385 228.50321,186.365442 228.50321,188.011842 C228.50321,188.594942 228.423699,189.103004 228.264674,189.536041 C228.105647,189.969078 227.880007,190.342085 227.587744,190.655073 C227.295481,190.968059 226.9452,191.236025 226.536892,191.458974 C226.128583,191.681925 225.675153,191.870572 225.176586,192.024921 L225.176586,192.153546 C225.7869,192.307896 226.343481,192.520124 226.846346,192.790236 C227.34921,193.060349 227.7833,193.390481 228.148628,193.780644 C228.513957,194.170806 228.79762,194.623131 228.999625,195.137631 C229.20163,195.652131 229.302632,196.230935 229.302632,196.874059 C229.302632,198.606209 228.670838,199.898871 227.407229,200.752082 C226.143622,201.605296 224.256834,202.031895 221.746811,202.031895 L213.236842,202.031895 L213.236842,200.62989 L214.319929,200.62989 C214.517637,200.62989 214.700298,200.610596 214.867919,200.572009 C215.035541,200.533421 215.179522,200.454103 215.299865,200.334053 C215.420208,200.214004 215.516912,200.042507 215.589977,199.819556 C215.663043,199.596607 215.699576,199.296486 215.699576,198.919187 L215.699576,186.301139 C215.699576,185.949564 215.663043,185.664449 215.589977,185.445786 C215.516912,185.227124 215.41806,185.05777 215.293418,184.93772 C215.168776,184.817671 215.022647,184.734065 214.855025,184.686904 C214.687404,184.639741 214.509041,184.61616 214.319929,184.61616 L213.236842,184.61616 L213.236842,183.227017 L220.94739,183.227017 Z M240.278849,183.227017 L240.278849,184.629022 L239.155033,184.629022 C238.967729,184.629022 238.793198,184.648315 238.631436,184.686904 C238.469673,184.725491 238.329198,184.804808 238.210005,184.924858 C238.090811,185.044909 237.995032,185.216406 237.922665,185.439355 C237.850297,185.662306 237.814114,185.962425 237.814114,186.339726 L237.814114,191.420387 L244.646412,191.420387 L244.646412,186.339726 C244.646412,185.962425 244.612357,185.662306 244.544247,185.439355 C244.476136,185.216406 244.380357,185.044909 244.256907,184.924858 C244.133458,184.804808 243.990853,184.725491 243.829091,184.686904 C243.667328,184.648315 243.492798,184.629022 243.305494,184.629022 L242.181677,184.629022 L242.181677,183.227017 L251.210526,183.227017 L251.210526,184.629022 L250.11225,184.629022 C249.93346,184.629022 249.763187,184.648315 249.601424,184.686904 C249.439662,184.725491 249.297057,184.804808 249.173607,184.924858 C249.050157,185.044909 248.954379,185.216406 248.886268,185.439355 C248.818158,185.662306 248.784103,185.962425 248.784103,186.339726 L248.784103,199.060673 C248.784103,199.403672 248.820286,199.680212 248.892654,199.8903 C248.965021,200.100387 249.062929,200.259022 249.186378,200.36621 C249.309828,200.473397 249.450304,200.54414 249.60781,200.57844 C249.765315,200.61274 249.93346,200.62989 250.11225,200.62989 L251.210526,200.62989 L251.210526,202.031895 L242.181677,202.031895 L242.181677,200.62989 L243.305494,200.62989 C243.492798,200.62989 243.667328,200.610596 243.829091,200.572009 C243.990853,200.533421 244.133458,200.454103 244.256907,200.334053 C244.380357,200.214004 244.476136,200.042507 244.544247,199.819556 C244.612357,199.596607 244.646412,199.296486 244.646412,198.919187 L244.646412,193.028192 L237.814114,193.028192 L237.814114,198.919187 C237.814114,199.296486 237.850297,199.596607 237.922665,199.819556 C237.995032,200.042507 238.090811,200.214004 238.210005,200.334053 C238.329198,200.454103 238.469673,200.533421 238.631436,200.572009 C238.793198,200.610596 238.967729,200.62989 239.155033,200.62989 L240.278849,200.62989 L240.278849,202.031895 L231.25,202.031895 L231.25,200.62989 L232.348276,200.62989 C232.53558,200.62989 232.71011,200.610596 232.871872,200.572009 C233.033635,200.533421 233.176239,200.454103 233.29969,200.334053 C233.42314,200.214004 233.518918,200.042507 233.58703,199.819556 C233.655139,199.596607 233.689194,199.296486 233.689194,198.919187 L233.689194,186.236826 C233.689194,185.885251 233.653012,185.604424 233.580643,185.394337 C233.508277,185.18425 233.410369,185.02347 233.286919,184.911996 C233.163469,184.800521 233.020864,184.725491 232.859102,184.686904 C232.697339,184.648315 232.527066,184.629022 232.348276,184.629022 L231.25,184.629022 L231.25,183.227017 L240.278849,183.227017 Z M221.813817,193.35272 L220.052631,193.35272 L220.052631,200.585366 L221.763498,200.585366 C222.333789,200.585366 222.820207,200.522691 223.222766,200.397342 C223.625325,200.271992 223.952399,200.069347 224.203998,199.789399 C224.455598,199.509452 224.638005,199.143853 224.751224,198.692594 C224.864444,198.241334 224.921053,197.689803 224.921053,197.037985 C224.921053,196.411236 224.870734,195.865973 224.770094,195.402179 C224.669455,194.938384 224.497531,194.556073 224.254319,194.255234 C224.011105,193.954395 223.692418,193.728769 223.298246,193.578349 C222.904074,193.427929 222.409269,193.35272 221.813817,193.35272 Z M442.311153,190.941839 C443.243877,190.941839 444,191.697411 444,192.629455 C444,193.561501 443.243877,194.317073 442.311153,194.317073 L262.149373,194.317073 C261.216649,194.317073 260.460526,193.561501 260.460526,192.629455 C260.460526,191.697411 261.216649,190.941839 262.149373,190.941839 L442.311153,190.941839 Z M181.850627,190.941839 C182.783351,190.941839 183.539474,191.697411 183.539474,192.629455 C183.539474,193.561501 182.783351,194.317073 181.850627,194.317073 L1.68884732,194.317073 C0.756122699,194.317073 1.681284e-10,193.561501 1.681284e-10,192.629455 C1.681284e-10,191.697411 0.756122699,190.941839 1.68884732,190.941839 L181.850627,190.941839 Z M221.047223,185.155723 L220.052631,185.155723 L220.052631,191.424016 L221.100984,191.424016 C221.746128,191.424016 222.2815,191.362562 222.707115,191.239653 C223.132731,191.116745 223.473219,190.92624 223.728588,190.668133 C223.983957,190.410025 224.165402,190.07613 224.272926,189.666435 C224.380449,189.256741 224.43421,188.765115 224.43421,188.191542 C224.43421,187.617971 224.373729,187.138635 224.252765,186.753523 C224.1318,186.36841 223.936916,186.057046 223.668107,185.819423 C223.399296,185.581801 223.049849,185.411781 222.619754,185.309356 C222.189657,185.206934 221.665486,185.155723 221.047223,185.155723 Z M204.520831,136.096132 C210.832713,136.096132 215.952906,141.149332 215.9571,147.382768 L215.972735,170.61996 C215.972735,171.719978 215.074775,172.611719 213.965432,172.611719 L2.058983,172.611719 C1.72089393,172.611719 1.38619177,172.527098 1.08588278,172.365697 C0.100429817,171.836106 -0.284885382,170.625195 0.225465226,169.661051 L12.0102713,147.457489 C15.7419588,140.450508 23.0945611,136.096132 31.1896236,136.096132 L204.520831,136.096132 Z M412.810338,136.096132 C420.905401,136.096132 428.258008,140.450508 431.989703,147.457489 L443.774534,169.661051 C444.284885,170.625195 443.899572,171.836106 442.914119,172.365697 C442.61381,172.527098 442.279108,172.611719 441.94102,172.611719 L230.03457,172.611719 C228.925228,172.611719 228.027265,171.719978 228.027265,170.61996 L228.042875,147.382768 C228.047062,141.149332 233.167249,136.096132 239.479132,136.096132 L412.810338,136.096132 Z M205.110014,91.6135084 C211.453092,91.6135084 216.598197,96.6667074 216.601925,102.900144 L216.615824,126.137336 C216.615824,127.237354 215.713253,128.129095 214.598405,128.129095 L26.5427882,128.129095 C26.1994606,128.129095 25.8599248,128.042692 25.5562766,127.878056 C24.5701998,127.343451 24.192916,126.130721 24.7137992,125.169348 L36.8255747,102.874999 C40.6146067,95.9238758 47.985951,91.6135084 56.0794364,91.6135084 L205.110014,91.6135084 Z M388.596074,91.6135084 C396.68956,91.6135084 404.060586,95.9238758 407.849107,102.874999 L419.959243,125.169348 C420.480055,126.130721 420.102681,127.343451 419.116565,127.878056 C418.812905,128.042692 418.473363,128.129095 418.130035,128.129095 L230.074419,128.129095 C228.959571,128.129095 228.057145,127.237354 228.057145,126.137336 L228.072754,102.900144 C228.076942,96.6667074 233.222419,91.6135084 239.565497,91.6135084 L388.596074,91.6135084 Z M221.70094,0 C221.70094,0 231.209293,7.85088707 239.432082,11.3606907 C247.65487,14.8704944 255.480827,15.2830401 255.480827,15.2830401 L255.480827,15.2830401 L255.480827,18.7348816 C255.480827,52.1340077 241.726134,72.8836002 221.70094,82.9899697 C203.876331,72.4235336 187.921053,52.1340077 187.921053,18.7348816 L187.921053,18.7348816 L187.921053,15.2830401 C187.921053,15.2830401 195.509391,14.9716257 203.96911,11.3606907 C212.428829,7.74975576 221.70094,0 221.70094,0 Z" id="Combined-Shape-Copy"></path>
        </g>
    </g>
</svg>