<?xml version="1.0" encoding="UTF-8"?>
<svg width="60px" height="60px" viewBox="0 0 133 135" version="1.1" xmlns="http://www.w3.org/2000/svg" xmlns:xlink="http://www.w3.org/1999/xlink">
    <g id="Page-1" stroke="none" stroke-width="1" fill="none" fill-rule="evenodd">
        <g id="Group-15" transform="translate(1.000000, 0.000000)">
            <path d="M13.923524,47.139472 L4.939604,47.139472 C2.752364,47.139472 0.979604,48.914872 0.979604,51.099472 L0.979604,113.799472 L0.979604,129.419032 C0.979604,131.604952 2.753684,133.379032 4.939604,133.379032 L26.291924,133.379032 L104.149484,133.379032 L125.500484,133.379032 C127.689044,133.379032 129.460484,131.604952 129.460484,129.419032 L129.460484,113.799472 L129.460484,51.099472 C129.460484,48.914872 127.689044,47.139472 125.500484,47.139472 L105.453644,47.139472 L101.740484,33.939472 C100.873244,31.629472 99.969044,29.979472 97.780484,29.979472 L59.060924,29.979472 C56.875004,29.979472 55.772804,31.739032 55.100924,33.939472 L51.389084,47.139472 L31.743524,47.139472" id="Stroke-1" stroke="#7701CB" stroke-width="3.2" stroke-linejoin="round"></path>
            <path d="M107.9,90.258592 C107.9,106.539472 94.70264,119.739472 78.41912,119.739472 C62.13824,119.739472 48.93956,106.539472 48.93956,90.258592 C48.93956,73.979032 62.13824,60.779032 78.41912,60.779032 C94.70264,60.779032 107.9,73.979032 107.9,90.258592 Z" id="Stroke-3" stroke="#7701CB" stroke-width="3.2" stroke-linejoin="round"></path>
            <path d="M99.98,90.258592 C99.98,102.166312 90.32816,111.819472 78.41912,111.819472 C66.51272,111.819472 56.85956,102.166312 56.85956,90.258592 C56.85956,78.350872 66.51272,68.699032 78.41912,68.699032 C90.32816,68.699032 99.98,78.350872 99.98,90.258592 Z" id="Stroke-5" stroke="#7701CB" stroke-width="3.2" stroke-linejoin="round"></path>
            <path d="M63.02,90.258592 C63.02,81.753832 69.91436,74.859472 78.41912,74.859472" id="Stroke-7" stroke="#7701CB" stroke-width="3.2" stroke-linejoin="round"></path>
            <polygon id="Stroke-9" stroke="#7701CB" stroke-width="3.2" stroke-linejoin="round" points="61.26044 48.8989 95.58044 48.8989 95.58044 36.5767 61.26044 36.5767"></polygon>
            <polyline id="Stroke-11" stroke="#7701CB" stroke-width="3.2" points="110.152052 48.018592 110.152052 40.979032 123.643772 40.979032 123.643772 48.018592"></polyline>
            <line x1="36.522056" y1="57.699472" x2="36.522056" y2="119.298592" id="Stroke-12" stroke="#7701CB" stroke-width="3.2" stroke-linejoin="round"></line>
            <path d="M54.673376,35.589472 L50.053376,52.529032 C49.283816,54.509032 46.216136,56.433592 44.332496,56.433592 L10.033616,56.433592 C8.151296,56.433592 6.624056,54.905032 6.624056,53.024032 L6.624056,47.909032" id="Stroke-13" stroke="#7701CB" stroke-width="3.2" stroke-linejoin="round"></path>
            <path d="M31.682936,46.479472 C31.682936,49.272592 27.643736,51.539032 22.662056,51.539032 C17.681696,51.539032 13.642496,49.272592 13.642496,46.479472 C13.642496,43.685032 17.681696,41.418592 22.662056,41.418592 C27.643736,41.418592 31.682936,43.685032 31.682936,46.479472 Z" id="Stroke-14" stroke="#7701CB" stroke-width="3.2" stroke-linejoin="round"></path>
            <polygon id="Fill-8" fill="#7701CB" points="126.572 2.121 124.451 0 107 17.451 109.121 19.572"></polygon>
            <polygon id="Fill-8-Copy" fill="#7701CB" transform="translate(42.786000, 9.786000) scale(-1, 1) translate(-42.786000, -9.786000) " points="52.572 2.121 50.451 0 33 17.451 35.121 19.572"></polygon>
        </g>
    </g>
</svg>