<?xml version="1.0" encoding="UTF-8"?>
<svg width="60px" height="60px" viewBox="0 0 154 132" version="1.1" xmlns="http://www.w3.org/2000/svg" xmlns:xlink="http://www.w3.org/1999/xlink">
    <g id="Page-1" stroke="none" stroke-width="1" fill="none" fill-rule="evenodd">
        <g id="Group-15" fill="#7701CB">
            <path d="M134.3327,70.4986 C134.1537,70.1036 134.0427,69.6636 134.0427,69.2306 C134.0427,68.6066 134.2687,67.9866 134.6767,67.4876 C135.3267,66.6936 135.3267,65.5416 134.6777,64.7496 C134.2687,64.2486 134.0427,63.6286 134.0427,63.0036 C134.0427,62.3796 134.2687,61.7596 134.6767,61.2606 C135.3267,60.4666 135.3267,59.3136 134.6777,58.5216 C134.2687,58.0206 134.0427,57.4006 134.0427,56.7756 C134.0427,56.4046 134.1267,56.0596 134.2787,55.7286 L144.0777,61.2626 L144.0777,64.9786 L134.3327,70.4986 Z M75.7417,70.6936 C73.4997,70.5156 71.5327,69.3546 70.2597,67.6486 L131.2717,67.6516 C131.1227,68.1646 131.0427,68.6956 131.0427,69.2306 C131.0427,69.7186 131.1057,70.2096 131.2257,70.6856 L75.7417,70.6936 Z M110.9147,107.1086 L37.1587,107.1086 L37.1587,21.1586 L110.9147,21.1586 L110.9147,52.5326 L91.3617,52.5216 C87.9137,47.6386 82.3587,44.7376 76.3537,44.7376 C66.2197,44.7376 57.9747,52.9816 57.9747,63.1156 C57.9747,73.2496 66.2197,81.4946 76.3537,81.4946 C82.3777,81.4946 87.9307,78.5906 91.3777,73.6916 L110.9147,73.6886 L110.9147,107.1086 Z M103.4477,128.4036 L44.6257,128.4036 C40.5087,128.4036 37.1587,125.0546 37.1587,120.9366 L37.1587,110.1086 L110.9147,110.1086 L110.9147,120.9366 C110.9147,125.0546 107.5647,128.4036 103.4477,128.4036 L103.4477,128.4036 Z M19.6817,70.7016 L19.6817,67.6456 L34.1587,67.6466 L34.1587,70.6996 L19.6817,70.7016 Z M6.0577,70.7036 L6.0567,70.7036 C5.2397,70.7036 4.4727,70.3856 3.8957,69.8086 C3.3177,69.2306 2.9997,68.4636 2.9997,67.6456 L2.9997,58.5866 C2.9997,57.7686 3.3177,57.0016 3.8957,56.4246 C4.4727,55.8466 5.2397,55.5286 6.0577,55.5286 L6.0587,55.5286 L9.5377,55.5296 L9.5377,70.7036 L6.0577,70.7036 Z M34.1587,58.5856 L19.6817,58.5866 L19.6817,55.5306 L34.1587,55.5326 L34.1587,58.5856 Z M19.6817,61.5866 L34.1587,61.5856 L34.1587,64.6466 L19.6817,64.6456 L19.6817,61.5866 Z M16.6817,70.7026 L12.5377,70.7026 L12.5377,55.5296 L16.6817,55.5306 L16.6817,70.7026 Z M45.1637,2.9996 L102.9097,2.9996 C107.3237,2.9996 110.9147,6.5906 110.9147,11.0036 L110.9147,18.1586 L37.1587,18.1586 L37.1587,11.0036 C37.1587,6.5906 40.7497,2.9996 45.1637,2.9996 L45.1637,2.9996 Z M131.3507,58.5806 L70.2637,58.5836 C71.6397,56.7396 73.8237,55.5326 76.2917,55.5136 L76.5207,55.5326 L131.1807,55.5466 C131.0897,55.9456 131.0427,56.3576 131.0427,56.7756 C131.0427,57.3916 131.1547,57.9986 131.3507,58.5806 L131.3507,58.5806 Z M68.7507,63.1156 C68.7507,62.5916 68.8057,62.0786 68.9067,61.5836 L131.2367,61.5806 C131.1157,62.0456 131.0427,62.5216 131.0427,63.0036 C131.0427,63.5626 131.1297,64.1176 131.2917,64.6516 L68.9097,64.6486 C68.8077,64.1526 68.7507,63.6416 68.7507,63.1156 L68.7507,63.1156 Z M65.7507,63.1156 C65.7507,68.9626 70.5067,73.7186 76.3537,73.7186 L77.7957,73.6936 L87.5217,73.6926 C84.6457,76.7386 80.6407,78.4946 76.3537,78.4946 C67.8737,78.4946 60.9747,71.5956 60.9747,63.1156 C60.9747,54.6366 67.8737,47.7376 76.3537,47.7376 C80.6227,47.7376 84.6217,49.4876 87.4997,52.5196 L76.3537,52.5136 C70.5067,52.5136 65.7507,57.2686 65.7507,63.1156 L65.7507,63.1156 Z M144.9607,58.3146 L144.0777,57.6616 L144.0777,57.8166 L134.7447,52.5466 L134.3197,52.5466 L113.9147,52.5346 L113.9147,11.0036 C113.9147,4.9356 108.9787,-0.0004 102.9097,-0.0004 L45.1637,-0.0004 C39.0957,-0.0004 34.1587,4.9356 34.1587,11.0036 L34.1587,52.5326 L6.0597,52.5286 L6.0567,52.5286 C4.4387,52.5286 2.9187,53.1586 1.7737,54.3026 C0.6297,55.4466 -0.0003,56.9686 -0.0003,58.5866 L-0.0003,67.6456 C-0.0003,69.2646 0.6297,70.7856 1.7737,71.9306 C2.9187,73.0736 4.4387,73.7036 6.0567,73.7036 L6.0587,73.7036 L34.1587,73.6996 L34.1587,120.9366 C34.1587,126.7086 38.8537,131.4036 44.6257,131.4036 L103.4477,131.4036 C109.2197,131.4036 113.9147,126.7086 113.9147,120.9366 L113.9147,73.6886 L134.3197,73.6866 L134.7917,73.6866 L144.3207,68.2896 L144.3097,68.3566 L144.5127,68.1816 L153.4587,63.1136 L144.9607,58.3146 Z" id="Fill-1"></path>
            <polygon id="Fill-4" points="59.51 12.909 88.563 12.909 88.563 9.909 59.51 9.909"></polygon>
            <path d="M74.0368,124.2359 C71.3528,124.2359 69.1708,122.0529 69.1708,119.3699 C69.1708,116.6859 71.3528,114.5039 74.0368,114.5039 C76.7208,114.5039 78.9038,116.6859 78.9038,119.3699 C78.9038,122.0529 76.7208,124.2359 74.0368,124.2359 M74.0368,111.5039 C69.6988,111.5039 66.1708,115.0319 66.1708,119.3699 C66.1708,123.7079 69.6988,127.2359 74.0368,127.2359 C78.3748,127.2359 81.9038,123.7079 81.9038,119.3699 C81.9038,115.0319 78.3748,111.5039 74.0368,111.5039" id="Fill-6"></path>
            <polygon id="Fill-7" points="119.943 82.5894 137.394 100.0404 139.515 97.9194 122.064 80.4684"></polygon>
            <polygon id="Fill-8" points="139.5153 27.9497 137.3943 25.8287 119.9433 43.2797 122.0643 45.4007"></polygon>
            <polygon id="Fill-9" points="7.6969 97.9195 9.8179 100.0405 27.2689 82.5895 25.1479 80.4685"></polygon>
            <polygon id="Fill-10" points="7.6969 27.9497 25.1479 45.4007 27.2689 43.2797 9.8179 25.8287"></polygon>
            <path d="M54.2028,56.313 L51.3278,55.454 C50.6048,57.871 50.2388,60.387 50.2388,62.934 C50.2388,65.739 50.6818,68.501 51.5568,71.14 L54.4048,70.197 C53.6318,67.862 53.2388,65.417 53.2388,62.934 C53.2388,60.678 53.5628,58.451 54.2028,56.313" id="Fill-11"></path>
            <path d="M76.7301,93.2124 C75.3921,93.2124 74.0421,93.1234 72.7201,92.9474 L72.3261,95.9224 C73.7791,96.1144 75.2601,96.2124 76.7301,96.2124 C81.2091,96.2124 85.5521,95.3354 89.6421,93.6054 L88.4721,90.8414 C84.7551,92.4144 80.8051,93.2124 76.7301,93.2124" id="Fill-12"></path>
            <path d="M105.3737,39.1782 L107.6767,37.2562 C103.5967,32.3662 98.3557,28.4652 92.5227,25.9762 L91.3457,28.7362 C96.7447,31.0392 101.5957,34.6502 105.3737,39.1782" id="Fill-13"></path>
            <path d="M51.2995,38.9839 C48.8415,41.6169 46.8155,44.5949 45.2785,47.8379 L47.9895,49.1229 C49.3945,46.1599 51.2445,43.4379 53.4925,41.0309 L51.2995,38.9839 Z" id="Fill-14"></path>
        </g>
    </g>
</svg>